<?xml version="1.0" encoding="UTF-8"?>
<svg version="1.1" xmlns="http://www.w3.org/2000/svg" width="512" height="512">
<path d="M0 0 C1.94298364 -0.00299726 3.88596669 -0.00640108 5.82894897 -0.01017761 C11.07721668 -0.01896496 16.32546804 -0.02135352 21.57374239 -0.0219934 C24.86182987 -0.02270699 28.14991327 -0.02484715 31.43799973 -0.02749062 C42.93523164 -0.0367272 54.432452 -0.04082769 65.9296875 -0.04003906 C76.60415655 -0.03943899 87.27857494 -0.04998131 97.95303118 -0.06578273 C107.15263149 -0.07890992 116.35221534 -0.08422078 125.55182493 -0.08358365 C131.03070891 -0.08333015 136.50954784 -0.08609892 141.98842239 -0.0967617 C147.14806242 -0.10653011 152.30761513 -0.10646274 157.46725845 -0.09924507 C159.34640126 -0.09820994 161.22554976 -0.10049723 163.10468292 -0.10660553 C178.61933458 -0.15371655 194.06015801 0.59347563 209.18896484 4.33276367 C210.49788696 4.65204834 210.49788696 4.65204834 211.83325195 4.9777832 C239.08026758 11.98309174 262.943355 29.0402006 277.45019531 53.21020508 C292.21879074 78.86910191 294.71860854 106.94708189 294.70922852 136.00463867 C294.71222685 137.87393764 294.71563092 139.743236 294.71940613 141.61253357 C294.72818359 146.65640468 294.73058164 151.7002588 294.73122191 156.74413681 C294.7319362 159.90678836 294.73407767 163.06943569 294.73671913 166.23208618 C294.74595323 177.29836294 294.75005662 188.36462772 294.74926758 199.4309082 C294.74866793 209.69237623 294.75920252 219.9537915 294.77501124 230.2152462 C294.78815679 239.06841971 294.79344852 247.92157612 294.79281217 256.77475929 C294.79255915 262.04301438 294.79530019 267.31122255 294.80599022 272.57946777 C294.81578965 277.54378679 294.81567077 282.5080152 294.80847359 287.47233772 C294.80744214 289.27604368 294.80970283 291.07975563 294.81583405 292.88345146 C294.86777139 309.24573784 294.4385259 326.10216645 290.31396484 342.02026367 C290.09780518 342.88337158 289.88164551 343.74647949 289.65893555 344.63574219 C285.00746653 362.50368466 276.95332095 378.3888062 264.56396484 392.14526367 C263.87818359 392.91354492 263.19240234 393.68182617 262.48583984 394.47338867 C240.22769903 418.05053042 207.49213607 427.3249517 175.91427612 428.31502533 C163.45765943 428.61837287 150.99440905 428.57135163 138.53504944 428.54824018 C133.06909769 428.5405378 127.60315953 428.54771806 122.13720703 428.55239868 C112.96562953 428.55782592 103.79412497 428.55074496 94.62255859 428.53637695 C84.08424914 428.52005639 73.54611393 428.52534706 63.00780869 428.54185617 C53.88938808 428.55555821 44.77101931 428.55734848 35.65259171 428.54954016 C30.23740034 428.54491115 24.82229033 428.54410475 19.40710449 428.55414963 C-24.82871062 428.62487112 -67.7588637 427.33975074 -101.56103516 394.52026367 C-134.2486102 361.56214882 -133.91794219 315.17234045 -133.8060801 271.91875887 C-133.7946106 266.43398865 -133.79888465 260.94922582 -133.80082703 255.46444702 C-133.80170473 246.26768913 -133.7907365 237.07100569 -133.7722168 227.87426758 C-133.75101944 217.28815255 -133.74755057 206.70214609 -133.75377876 196.11601412 C-133.75949906 185.86230534 -133.75379788 175.60863422 -133.74260521 165.35493088 C-133.73799827 161.02128772 -133.73706818 156.68766789 -133.73919106 152.35402298 C-133.74109318 147.24345409 -133.73282438 142.13299365 -133.71713066 137.02244949 C-133.7129376 135.16265309 -133.71200302 133.30284557 -133.71482086 131.44304657 C-133.73466195 115.98872095 -132.97294471 100.58887355 -129.24853516 85.52026367 C-129.03567871 84.64764893 -128.82282227 83.77503418 -128.60351562 82.87597656 C-122.07896752 57.49886959 -106.23895935 32.74646438 -83.43603516 19.14526367 C-57.11151198 3.73595637 -30.08412963 -0.00931261 0 0 Z M149.71337891 152.62109375 C148.6457165 153.69808266 147.57712262 154.77414885 146.50767517 155.84936523 C144.21735432 158.15564998 141.9333438 160.46794179 139.65402985 162.78510475 C136.05125078 166.44694492 132.43254877 170.09276954 128.81121826 173.73625183 C119.82556384 182.78183926 110.86127064 191.84851931 101.90057373 200.91882324 C94.9230629 207.98116868 87.93994456 215.03777087 80.93954825 222.07744139 C77.33696888 225.70154227 73.74654327 229.33714884 70.16477919 232.98181784 C67.94029507 235.24031464 65.70555957 237.48844511 63.46780586 239.73378754 C62.42978072 240.77960068 61.39609405 241.82973993 60.36704063 242.88438225 C58.96598499 244.31908727 57.54804214 245.73724409 56.12921143 247.15437317 C55.33948566 247.95390317 54.5497599 248.75343317 53.73610306 249.57719135 C51.56396484 251.14526367 51.56396484 251.14526367 49.42328262 251.01763344 C46.62445242 249.70445563 44.84056138 247.76305289 42.67529297 245.56542969 C42.20320908 245.09057129 41.73112518 244.61571289 41.24473572 244.12646484 C39.68795071 242.55740861 38.1418499 240.97822617 36.59521484 239.39916992 C35.5127257 238.30600206 34.42942088 237.21364136 33.34533691 236.12205505 C30.49319497 233.24712894 27.64930189 230.36419718 24.80792236 227.4786377 C20.26155012 222.86209606 15.70776157 218.25298205 11.14463806 213.65299797 C9.55370933 212.04538458 7.96936517 210.43147924 6.38537598 208.81703186 C5.40806255 207.82925506 4.43049621 206.8417284 3.45263672 205.85449219 C2.60310425 204.99146988 1.75357178 204.12844757 0.8782959 203.23927307 C-3.32290661 199.43802021 -6.5803445 198.68167939 -12.12353516 198.83666992 C-16.61200735 199.43563834 -19.8179995 201.25436401 -22.75634766 204.68823242 C-25.70893617 209.19970508 -26.02599319 212.8356414 -25.43603516 218.14526367 C-23.3245517 223.38473514 -20.23952585 226.77121987 -16.29980469 230.66967773 C-15.68316956 231.29156982 -15.06653442 231.91346191 -14.43121338 232.55419922 C-12.40121372 234.59734814 -10.36050215 236.62939096 -8.31884766 238.66088867 C-6.89977869 240.08197956 -5.48115522 241.50351545 -4.06295776 242.92547607 C-1.09370005 245.89915007 1.88089943 248.86734676 4.859375 251.83178711 C8.67499536 255.63030072 12.47696872 259.44214443 16.27505302 263.25818253 C19.20014394 266.19411658 22.13234582 269.12286458 25.06674576 272.04949188 C26.47156076 273.45230717 27.87415486 274.85735019 29.27447128 276.26465607 C31.23212513 278.22993447 33.19914924 280.18532972 35.16894531 282.13842773 C36.03258194 283.0111734 36.03258194 283.0111734 36.91366577 283.90155029 C41.88886491 288.79895985 45.46524329 290.29275469 52.40380859 290.60620117 C57.92244017 289.42862698 62.1181011 284.8418819 65.97955322 280.98364258 C66.74466709 280.22320868 66.74466709 280.22320868 67.5252378 279.44741249 C69.22032261 277.76025705 70.90822519 276.06610131 72.59619141 274.37182617 C73.81507725 273.15565236 75.03438774 271.93990401 76.25408936 270.72454834 C79.55596995 267.43176669 82.85151549 264.13271272 86.1456728 260.83220673 C89.59572596 257.37708299 93.05066414 253.92684956 96.50482178 250.47583008 C102.30190203 244.6823854 108.09475906 238.88474301 113.88525391 233.0847168 C120.58099714 226.37807955 127.28392877 219.6786915 133.9906199 212.98300362 C139.75067273 207.23202302 145.50682355 201.47715873 151.25972342 195.71902275 C154.69494979 192.28067767 158.13151482 188.84369985 161.57160187 185.41021729 C164.80351022 182.18408118 168.0304964 178.95310146 171.25373077 175.71829987 C172.43799301 174.53139085 173.62396474 173.34618471 174.81175232 172.16280365 C176.43127128 170.54874048 178.04451852 168.92865823 179.65631104 167.30688477 C181.01348425 165.94858047 181.01348425 165.94858047 182.3980751 164.56283569 C186.02960709 160.5093098 186.98442423 157.69321112 186.81005859 152.16479492 C186.24009335 147.48746112 184.08399987 144.70244406 180.93896484 141.33276367 C177.83714498 138.96800991 174.91709304 138.31900592 171.10302734 137.79760742 C161.84761732 139.06488664 155.89591316 146.29682134 149.71337891 152.62109375 Z " fill="#3A9AE8" transform="translate(175.43603515625,41.854736328125)"/>
</svg>
